<?xml version="1.0" encoding="UTF-8"?>
<svg id="Layer_1" data-name="Layer 1" xmlns="http://www.w3.org/2000/svg" viewBox="0 0 779.19 115.84">
  <defs>
    <style>
      .cls-1 {
        fill: #fff;
      }
    </style>
  </defs>
  <path class="cls-1" d="M48.04,0L0,113.16h19.07l11.72-27.6.32-.77h48.46l.32.77,11.72,27.6h19.07L62.65,0h-14.61ZM73.06,69.47h-35.44l.32-.77,17.4-40.98,17.4,40.98.32.77Z"/>
  <polygon class="cls-1" points="351.2 62.44 397.8 62.44 397.8 47.11 351.2 47.11 351.2 15.33 401.26 15.33 401.26 0 333.41 0 333.41 113.16 403.51 113.16 403.51 97.83 351.2 97.83 351.2 62.44"/>
  <polygon class="cls-1" points="614.73 15.33 643 15.33 643 113.16 660.79 113.16 660.79 15.33 689.06 15.33 689.06 0 614.73 0 614.73 15.33"/>
  <polygon class="cls-1" points="759.28 0 735.96 47.26 712.08 0 692.15 0 727.09 63.3 727.09 113.16 744.88 113.16 744.88 63.28 779.19 0 759.28 0"/>
  <path class="cls-1" d="M457.94,0l-48.04,113.16h19.07l11.72-27.6.32-.77h48.46l.32.77,11.72,27.6h19.07L472.55,0h-14.61ZM482.96,69.47h-35.44l.32-.77,17.4-40.98,17.4,40.98.32.77Z"/>
  <path class="cls-1" d="M160.18,0h-38.12v113.16h17.79v-44.1h20.33c24.28,0,40.59-13.88,40.59-34.53S184.45,0,160.18,0ZM168.71,52.39c-2.98.93-5.68,1.14-5.89,1.15-1.26.13-2.52.19-3.75.19h-19.23V15.33h19.23c14.33,0,23.6,7.54,23.6,19.2,0,8.64-5.07,15.15-13.96,17.86Z"/>
  <path class="cls-1" d="M584.54,64.52c0,25.05-5.7,34.37-21.04,34.37h0c-15.33,0-21.04-9.32-21.04-34.37V0h-17.79v68.04c0,16.83,4.06,29.52,12.06,37.7,6.57,6.71,15.57,10.11,26.76,10.11s20.2-3.4,26.76-10.11c8-8.18,12.06-20.86,12.06-37.7V0h-17.79v64.52Z"/>
  <path class="cls-1" d="M296.32,51.05c6.89-5.28,10.74-13.06,10.74-21.99,0-24.01-21.04-29.05-38.68-29.05h-28.12v113.16h36.54c24.87,0,39.13-12.23,39.13-33.57,0-13.54-6.26-22.72-19.62-28.55ZM258.05,15.33h10.32c9.54,0,20.92,2.82,20.92,13.57,0,11.36-9.37,16.56-27.84,16.56h-3.39V15.33ZM269.28,97.83h-11.23v-36.75h3.35c22.21,0,33.62,4.18,36.09,14.26.04.17.06.37.1.55.27,1.26.42,2.6.42,4.04,0,14.32-15.63,17.9-28.74,17.9Z"/>
</svg>