<?xml version="1.0" encoding="UTF-8"?>
<svg id="Layer_2" data-name="Layer 2" xmlns="http://www.w3.org/2000/svg" viewBox="0 0 313.32 390">
  <g id="TXT_KOR">
    <path d="M217.5,120.49h-27.97L138.39,0h-19.95L0,279.02h19.33l32.02-75.42h77.07v186.4h18.44v-110.98h70.64c58.21,0,95.82-31.12,95.82-79.27s-37.61-79.27-95.82-79.27ZM58.09,187.71L128.41,22.04l41.79,98.45h-41.79v67.22H58.09ZM146.85,263.13v-126.76h30.09l53.57,126.21c-3.53.35-7.16.55-10.91.55h-72.76ZM248.35,259.07l-52.08-122.69h23.34c44.51,0,74.42,25.47,74.42,63.38,0,29-17.52,50.71-45.68,59.31Z"/>
  </g>
</svg>