<?xml version="1.0" encoding="UTF-8"?>
<svg id="Layer_2" xmlns="http://www.w3.org/2000/svg" version="1.1" viewBox="0 0 523.7 552.4">
  <!-- Generator: Adobe Illustrator 30.2.1, SVG Export Plug-In . SVG Version: 2.1.1 Build 1)  -->
  <defs>
    <style>
      .st0, .st1 {
        stroke: #b3b5b8;
        stroke-dasharray: 6 6;
        stroke-width: .5px;
      }

      .st0, .st1, .st2, .st3 {
        stroke-miterlimit: 10;
      }

      .st0, .st4, .st2, .st3 {
        fill: none;
      }

      .st1 {
        fill: #fff;
      }

      .st5 {
        fill: #e3e4e5;
        opacity: .5;
      }

      .st5, .st6, .st7, .st8 {
        isolation: isolate;
      }

      .st6, .st8 {
        font-family: NotoSansKR-Regular, 'Noto Sans KR';
        font-size: 16px;
      }

      .st9, .st8 {
        fill: #ed1c24;
      }

      .st2 {
        stroke: #000;
        stroke-width: .2px;
      }

      .st10 {
        fill: #b3b4b7;
      }

      .st3 {
        stroke: #ed1c24;
      }
    </style>
  </defs>
  <g id="Contents">
    <g>
      <rect class="st5" x="93.1" y="16.7" width="414.3" height="471.7"/>
      <g>
        <rect class="st1" x="134.4" y="58.6" width="331.8" height="388.5"/>
        <g>
          <rect class="st4" x="-29.7" y="-80.1" width="661.1" height="661.5"/>
          <line class="st4" x1="300.9" y1="-80.1" x2="300.9" y2="581.5"/>
        </g>
      </g>
      <g class="st7">
        <text class="st8" transform="translate(384.6 438.4)"><tspan x="0" y="0">a</tspan></text>
      </g>
      <g class="st7">
        <text class="st6" transform="translate(382.7 543.2)"><tspan x="0" y="0">a</tspan></text>
      </g>
      <g class="st7">
        <text class="st6" transform="translate(212.8 543.2)"><tspan x="0" y="0">a</tspan></text>
      </g>
      <g class="st7">
        <text class="st6" transform="translate(467.6 543.2)"><tspan x="0" y="0">0.25a</tspan></text>
      </g>
      <g class="st7">
        <text class="st6" transform="translate(93.7 543.2)"><tspan x="0" y="0">0.25a</tspan></text>
      </g>
      <g>
        <line class="st3" x1="465.5" y1="396.6" x2="465.5" y2="446.6"/>
        <line class="st3" x1="301.1" y1="396.3" x2="301.1" y2="446.3"/>
        <g>
          <line class="st3" x1="460.8" y1="421.9" x2="306.7" y2="421.9"/>
          <polygon class="st9" points="462.4 421.9 460.2 417.8 460.7 421.9 460.2 426.1 462.4 421.9"/>
          <polygon class="st9" points="305.1 421.9 307.4 417.8 306.8 421.9 307.4 426.1 305.1 421.9"/>
        </g>
      </g>
      <line class="st0" x1="300.9" y1="16.7" x2="300.9" y2="489.8"/>
      <rect class="st2" x="93.1" y="16.7" width="414.3" height="471.6"/>
      <g>
        <polyline class="st2" points="466.2 505.7 466.2 524 507.4 524 507.4 505.7"/>
        <polyline class="st2" points="300.4 505.7 300.4 524 466.2 524 466.2 505.7"/>
      </g>
      <g>
        <polyline class="st2" points="134.4 505.7 134.4 524 93.1 524 93.1 505.7"/>
        <polyline class="st2" points="300.2 505.7 300.2 524 134.4 524 134.4 505.7"/>
      </g>
      <line class="st0" x1="515.7" y1="252.3" x2="85.2" y2="252.3"/>
      <g>
        <line class="st3" x1="310.5" y1="252.3" x2="291.6" y2="252.3"/>
        <line class="st3" x1="301.1" y1="261.7" x2="301.1" y2="242.9"/>
      </g>
      <rect class="st10" x="466.2" y="447" width="41.2" height="41.2"/>
      <rect class="st10" x="93.1" y="447" width="41.3" height="41.2"/>
      <rect class="st10" x="466.2" y="16.3" width="41.2" height="41.3"/>
      <rect class="st10" x="93.1" y="16.3" width="41.3" height="41.3"/>
      <g class="st7">
        <text class="st6" transform="translate(6.5 40.3)"><tspan x="0" y="0">0.25a</tspan></text>
      </g>
      <polyline class="st2" points="75.9 57.5 57.6 57.5 57.6 16.3 75.9 16.3"/>
      <g>
        <rect class="st4" x="-29.6" y="-80.1" width="661.1" height="661.5"/>
        <line class="st4" x1="300.9" y1="-80.1" x2="300.9" y2="581.5"/>
      </g>
      <path d="M371.1,178.6h-27.9l-51-120h-19.9l-118,278h19.3l31.9-75.1h76.8v185.7h18.4v-110.6h70.4c58,0,95.5-31,95.5-79s-37.5-79-95.5-79h0ZM212.3,245.6l70.1-165,41.6,98.1h-41.6v67h-70.1ZM300.7,320.7v-126.3h30l53.4,125.7c-3.5.4-7.1.5-10.9.5h-72.5ZM401.8,316.6l-51.9-122.2h23.2c44.3,0,74.1,25.4,74.1,63.1s-17.5,50.5-45.5,59.1h0Z"/>
    </g>
  </g>
</svg>